<?xml version="1.0" encoding="utf-8"?>
<!-- Generator: Adobe Illustrator 19.2.1, SVG Export Plug-In . SVG Version: 6.00 Build 0)  -->
<svg version="1.1" id="Capa_1" xmlns="http://www.w3.org/2000/svg" xmlns:xlink="http://www.w3.org/1999/xlink" x="0px" y="0px"
	 viewBox="0 0 493.6 493.6" style="enable-background:new 0 0 493.6 493.6;" xml:space="preserve">
<path id="XMLID_128_" d="M11,273.4l204.4,204.4c7.2,7.2,16.8,11,26.6,11c4.8,0,9.7-0.9,14.4-2.9c14.1-5.8,23.2-19.5,23.2-34.7v-71.6
	H456c20.8,0,37.6-16.8,37.6-37.6V151.6c0-20.8-16.8-37.6-37.6-37.6H279.7V42.4c0-15.2-9.2-28.9-23.2-34.7c-14-5.8-30.2-2.6-41,8.2
	L11,220.2C-3.7,234.9-3.7,258.7,11,273.4z"/>
</svg>
