<?xml version="1.0" encoding="utf-8"?>
<!-- Generator: Adobe Illustrator 19.2.1, SVG Export Plug-In . SVG Version: 6.00 Build 0)  -->
<svg version="1.1" id="Capa_1" xmlns="http://www.w3.org/2000/svg" xmlns:xlink="http://www.w3.org/1999/xlink" x="0px" y="0px"
	 viewBox="0 0 493.6 493.6" style="enable-background:new 0 0 493.6 493.6;" xml:space="preserve">
<path id="XMLID_128_" d="M482.6,220.2L278.2,15.8c-10.7-10.8-26.9-14-41-8.2C223.1,13.4,214,27.2,214,42.4V114H37.6
	C16.8,114,0,130.8,0,151.6V342c0,20.8,16.8,37.6,37.6,37.6H214v71.6c0,15.2,9.2,28.9,23.2,34.7c4.6,1.9,9.5,2.9,14.4,2.9
	c9.8,0,19.4-3.8,26.6-11l204.4-204.4C497.3,258.7,497.3,234.9,482.6,220.2z"/>
</svg>
